<svg xmlns="http://www.w3.org/2000/svg" width="173" height="168" viewBox="0 0 173 168" fill="none">
  <path d="M170.061 84.4118C170.061 129.126 132.772 165.492 86.6256 165.492C40.4795 165.492 3.19006 129.126 3.19006 84.4118C3.19006 39.6972 40.4795 3.33121 86.6256 3.33121C132.772 3.33121 170.061 39.6972 170.061 84.4118Z" fill="#D36AD6" stroke="black" stroke-width="5"/>
  <mask id="mask0_43_222" style="mask-type:alpha" maskUnits="userSpaceOnUse" x="41" y="43" width="96" height="94">
    <rect x="41.4225" y="43.5934" width="95.3736" height="93.2992" fill="#D9D9D9"/>
  </mask>
  <g mask="url(#mask0_43_222)">
    <path d="M79.2739 113.438L123.318 70.3521L118.583 65.7519L79.2408 104.205L59.6693 85.0273L54.9337 89.6598L79.2739 113.438ZM79.2739 119.917C78.4571 119.917 77.6402 119.766 76.8233 119.464C76.0065 119.161 75.2669 118.686 74.6046 118.038L50.2313 94.1952C49.5747 93.5491 49.096 92.8357 48.7951 92.055C48.4942 91.2743 48.3438 90.4802 48.3438 89.6726C48.3438 88.865 48.4942 88.0601 48.7951 87.2579C49.096 86.4557 49.5747 85.7338 50.2313 85.0921L54.9766 80.4499C55.6545 79.7868 56.3963 79.3041 57.2022 79.0017C58.0079 78.6994 58.8303 78.5482 59.6693 78.5482C60.5082 78.5482 61.3305 78.6994 62.1364 79.0017C62.9422 79.3041 63.6763 79.7792 64.3386 80.4271L79.2739 95.0376L113.913 61.1193C114.553 60.4714 115.282 60.0017 116.099 59.7101C116.916 59.4186 117.733 59.2728 118.549 59.2728C119.366 59.2728 120.183 59.4186 121 59.7101C121.817 60.0017 122.56 60.4527 123.231 61.0631L128.008 65.7248C128.679 66.3908 129.168 67.1179 129.478 67.9062C129.787 68.6945 129.941 69.499 129.941 70.3196C129.941 71.1403 129.791 71.944 129.49 72.7307C129.189 73.5174 128.71 74.2363 128.054 74.8874L83.9432 118.038C83.2809 118.686 82.5413 119.161 81.7245 119.464C80.9076 119.766 80.0907 119.917 79.2739 119.917Z" fill="#1C1B1F"/>
  </g>
</svg>