<svg xmlns="http://www.w3.org/2000/svg" width="96" height="95" viewBox="0 0 96 95" fill="none">
  <mask id="mask0_43_229" style="mask-type:alpha" maskUnits="userSpaceOnUse" x="0" y="0" width="96" height="95">
    <rect x="0.155029" y="0.762146" width="95.3736" height="93.2992" fill="#D9D9D9"/>
  </mask>
  <g mask="url(#mask0_43_229)">
    <path d="M38.5694 82.399C35.1915 82.399 32.3105 81.1949 29.9261 78.7868C27.5418 76.3788 26.184 73.5982 25.8529 70.445C21.9231 70.0563 18.6446 68.4149 16.0175 65.5209C13.3903 62.6269 12.0767 59.139 12.0767 55.0571C12.0767 53.6533 12.2588 52.2873 12.6231 50.9591C12.9873 49.6309 13.5338 48.362 14.2623 47.1526C13.5338 45.9863 12.9873 44.7553 12.6231 43.4595C12.2588 42.1636 12.0767 40.7815 12.0767 39.3129C12.0767 35.4038 13.4344 32.04 16.1499 29.2216C18.8654 26.4032 22.1328 24.7564 25.9522 24.2813C26.1067 20.977 27.4093 18.1748 29.8599 15.8747C32.3104 13.5746 35.2357 12.4245 38.6355 12.4245C40.49 12.4245 42.1624 12.7593 43.6526 13.4288C45.1428 14.0983 46.5392 15.0486 47.8418 16.2796C49.1222 15.0486 50.502 14.0983 51.9813 13.4288C53.4604 12.7593 55.1272 12.4245 56.9817 12.4245C60.3375 12.4245 63.2241 13.5692 65.6415 15.8584C68.059 18.1478 69.3671 20.9446 69.5658 24.249C73.4293 24.6377 76.7353 26.2575 79.4839 29.1083C82.2325 31.9591 83.6068 35.3606 83.6068 39.3129C83.6068 40.7815 83.4137 42.1745 83.0273 43.4919C82.641 44.8093 82.0835 46.0511 81.3549 47.2174C82.0835 48.47 82.641 49.7928 83.0273 51.1858C83.4137 52.5788 83.6068 53.9556 83.6068 55.3162C83.6068 59.4197 82.2877 62.8699 79.6495 65.6666C77.0113 68.4635 73.7273 70.0563 69.7975 70.445C69.4664 73.5982 68.1031 76.3788 65.7077 78.7868C63.3124 81.1949 60.4479 82.399 57.1142 82.399C55.2376 82.399 53.5542 82.0804 52.064 81.4433C50.5738 80.8062 49.1664 79.8721 47.8418 78.6411C46.4951 79.8721 45.0821 80.8062 43.6029 81.4433C42.1237 82.0804 40.4459 82.399 38.5694 82.399ZM51.1533 24.4109V70.4126C51.1533 71.9461 51.7439 73.2473 52.9251 74.3163C54.1062 75.3854 55.5246 75.9199 57.1804 75.9199C58.77 75.9199 60.1443 75.2504 61.3033 73.9114C62.4624 72.5723 63.0971 71.1685 63.2075 69.6999C61.7284 69.1815 60.3541 68.485 59.0846 67.6104C57.8151 66.7357 56.7168 65.6613 55.7896 64.3871C55.2156 63.6096 55.0003 62.7997 55.1438 61.9574C55.2873 61.1151 55.7565 60.4132 56.5512 59.8517C57.346 59.2902 58.1739 59.0796 59.0349 59.2199C59.8959 59.3603 60.6134 59.8193 61.1874 60.5968C62.0043 61.7198 63.0199 62.5783 64.2341 63.1722C65.4483 63.7662 66.784 64.0631 68.2411 64.0631C70.6475 64.0631 72.7062 63.2478 74.4172 61.6172C76.1282 59.9866 76.9837 57.8863 76.9837 55.3162C76.9837 54.8196 76.9341 54.312 76.8347 53.7937C76.7354 53.2753 76.6195 52.7462 76.487 52.2063C75.3169 52.9838 74.0419 53.5669 72.6621 53.9556C71.2823 54.3444 69.8527 54.5388 68.3736 54.5388C67.4243 54.5388 66.635 54.231 66.0058 53.6155C65.3766 53 65.062 52.2279 65.062 51.2992C65.062 50.3706 65.3766 49.5985 66.0058 48.983C66.635 48.3675 67.4243 48.0597 68.3736 48.0597C70.78 48.0597 72.8166 47.2012 74.4835 45.4843C76.1503 43.7673 76.9837 41.7102 76.9837 39.3129C76.9837 36.9588 76.1062 34.9502 74.351 33.2872C72.5959 31.6243 70.5592 30.7388 68.2411 30.6308C67.5567 32.0562 66.6129 33.3143 65.4097 34.405C64.2065 35.4956 62.8433 36.3217 61.3199 36.8832C60.4368 37.2288 59.5868 37.2072 58.77 36.8184C57.9531 36.4297 57.4012 35.8034 57.1142 34.9395C56.8272 34.0756 56.8658 33.2333 57.2301 32.4126C57.5944 31.5919 58.2181 31.0412 59.1012 30.7605C60.2271 30.3933 61.1488 29.6806 61.8663 28.6224C62.5838 27.5641 62.9426 26.3546 62.9426 24.994C62.9426 23.2878 62.363 21.8462 61.204 20.6692C60.0449 19.4921 58.6596 18.9036 57.048 18.9036C55.4363 18.9036 54.0509 19.4381 52.8919 20.5072C51.7328 21.5762 51.1533 22.8775 51.1533 24.4109ZM44.5302 70.4126V24.4109C44.5302 22.8775 43.9617 21.5762 42.8247 20.5072C41.6877 19.4381 40.2913 18.9036 38.6355 18.9036C37.0239 18.9036 35.6275 19.4921 34.4463 20.6692C33.2652 21.8462 32.6747 23.2878 32.6747 24.994C32.6747 26.333 33.0169 27.5263 33.7012 28.5738C34.3857 29.6212 35.2909 30.3285 36.4168 30.6956C37.2999 30.9764 37.9401 31.5272 38.3375 32.3478C38.7349 33.1685 38.7901 33.9892 38.5031 34.8099C38.1498 35.6738 37.5537 36.3109 36.7148 36.7212C35.8759 37.1315 35.0149 37.1639 34.1318 36.8184C32.6085 36.3001 31.2562 35.4956 30.075 34.405C28.8939 33.3143 27.9612 32.0562 27.2768 30.6308C25.0249 30.782 23.0325 31.6836 21.2994 33.3358C19.5663 34.988 18.6998 36.9804 18.6998 39.3129C18.6998 41.7102 19.5332 43.7673 21.2 45.4843C22.8669 47.2012 24.9035 48.0597 27.3099 48.0597C28.2592 48.0597 29.0485 48.3675 29.6777 48.983C30.3069 49.5985 30.6215 50.3706 30.6215 51.2992C30.6215 52.2279 30.3069 53 29.6777 53.6155C29.0485 54.231 28.2592 54.5388 27.3099 54.5388C25.8308 54.5388 24.4012 54.3336 23.0214 53.9233C21.6416 53.5129 20.3666 52.9405 19.1965 52.2063C19.0199 52.6598 18.893 53.135 18.8157 53.6317C18.7384 54.1285 18.6998 54.6252 18.6998 55.1219C18.6998 57.6919 19.5442 59.8247 21.2331 61.5201C22.922 63.2155 24.9697 64.0631 27.3762 64.0631C28.7891 64.0631 30.1137 63.7554 31.3501 63.1399C32.5864 62.5244 33.613 61.6767 34.4298 60.5968C35.0039 59.8625 35.7324 59.4144 36.6155 59.2524C37.4986 59.0904 38.3154 59.2902 39.066 59.8517C39.8167 60.4132 40.2748 61.1259 40.4404 61.9898C40.6059 62.8536 40.4017 63.6527 39.8277 64.3871C38.9004 65.6613 37.8076 66.7411 36.5492 67.6266C35.2908 68.5121 33.922 69.214 32.4429 69.7323C32.5532 71.2009 33.1935 72.5993 34.3636 73.9276C35.5337 75.2558 36.9356 75.9199 38.5694 75.9199C40.2251 75.9199 41.6326 75.3854 42.7916 74.3163C43.9507 73.2473 44.5302 71.9461 44.5302 70.4126Z" fill="#1C1B1F"/>
  </g>
</svg>