<svg xmlns="http://www.w3.org/2000/svg" width="255" height="144" viewBox="0 0 255 144" fill="none">
  <path d="M0.541687 143.333V107.667C0.541687 102.614 2.80193 98.3785 7.32242 94.9604C11.8429 91.5424 17.2771 89.8333 23.625 89.8333H61.424C65.2712 89.8333 68.9261 90.5764 72.3886 92.0625C75.8511 93.5486 78.6403 95.5549 80.7563 98.0812C86.3347 103.877 93.2116 108.41 101.387 111.679C109.562 114.949 118.267 116.583 127.5 116.583C136.926 116.583 145.726 114.949 153.902 111.679C162.077 108.41 168.858 103.877 174.244 98.0812C176.744 95.5549 179.678 93.5486 183.044 92.0625C186.411 90.5764 189.921 89.8333 193.576 89.8333H231.375C237.915 89.8333 243.398 91.5424 247.822 94.9604C252.246 98.3785 254.458 102.614 254.458 107.667V143.333H173.667V123.048C166.934 126.763 159.672 129.587 151.882 131.519C144.091 133.451 135.964 134.417 127.5 134.417C119.228 134.417 111.149 133.414 103.263 131.407C95.3757 129.401 88.066 126.54 81.3334 122.825V143.333H0.541687ZM127.5 107.667C120.19 107.667 113.265 106.366 106.725 103.766C100.185 101.165 94.7024 97.5611 90.2781 92.9542C87.008 89.2389 82.9203 86.3038 78.0151 84.149C73.1099 81.9941 67.7719 80.9167 62.0011 80.9167C66.233 75.418 75.1778 71.0712 88.8354 67.876C102.493 64.6809 115.381 63.0833 127.5 63.0833C139.619 63.0833 152.507 64.6809 166.165 67.876C179.822 71.0712 188.767 75.418 192.999 80.9167C187.421 80.9167 182.131 81.9941 177.129 84.149C172.128 86.3038 167.992 89.2389 164.722 92.9542C160.49 97.7097 155.104 101.351 148.564 103.877C142.023 106.403 135.002 107.667 127.5 107.667ZM35.1667 80.9167C25.5486 80.9167 17.3733 78.316 10.6406 73.1146C3.90801 67.9132 0.541687 61.5972 0.541687 54.1667C0.541687 46.5875 3.90801 40.2344 10.6406 35.1073C17.3733 29.9802 25.5486 27.4167 35.1667 27.4167C44.9771 27.4167 53.2005 29.9802 59.837 35.1073C66.4735 40.2344 69.7917 46.5875 69.7917 54.1667C69.7917 61.5972 66.4735 67.9132 59.837 73.1146C53.2005 78.316 44.9771 80.9167 35.1667 80.9167ZM219.833 80.9167C210.215 80.9167 202.04 78.316 195.307 73.1146C188.575 67.9132 185.208 61.5972 185.208 54.1667C185.208 46.5875 188.575 40.2344 195.307 35.1073C202.04 29.9802 210.215 27.4167 219.833 27.4167C229.644 27.4167 237.867 29.9802 244.504 35.1073C251.14 40.2344 254.458 46.5875 254.458 54.1667C254.458 61.5972 251.14 67.9132 244.504 73.1146C237.867 78.316 229.644 80.9167 219.833 80.9167ZM127.5 54.1667C117.882 54.1667 109.707 51.566 102.974 46.3646C96.2413 41.1632 92.875 34.8472 92.875 27.4167C92.875 19.8375 96.2413 13.4844 102.974 8.35728C109.707 3.2302 117.882 0.666656 127.5 0.666656C137.31 0.666656 145.534 3.2302 152.17 8.35728C158.807 13.4844 162.125 19.8375 162.125 27.4167C162.125 34.8472 158.807 41.1632 152.17 46.3646C145.534 51.566 137.31 54.1667 127.5 54.1667Z" fill="white"/>
</svg>