<svg xmlns="http://www.w3.org/2000/svg" width="56" height="54" viewBox="0 0 56 54" fill="none">
  <path d="M19.6526 10.2063C16.9691 10.3077 14.5458 11.2376 13.2494 12.4972C12.6474 13.0821 11.6712 13.0821 11.0692 12.4973C10.4671 11.9127 10.4669 10.9645 11.0689 10.3796C13.069 8.43643 16.3241 7.33488 19.5327 7.21358C22.7622 7.09153 26.2881 7.9505 28.7573 10.3495C29.3592 10.9343 29.3592 11.8825 28.757 12.4672C28.155 13.052 27.1789 13.0519 26.5768 12.4671C24.8949 10.8329 22.315 10.1057 19.6526 10.2063Z" fill="#EEDEF1"/>
  <path fill-rule="evenodd" clip-rule="evenodd" d="M35.3581 32.0226C38.3057 28.6331 40.0825 24.2518 40.0825 19.4674C40.0825 8.71586 31.1097 0 20.0412 0C8.97277 0 0 8.71586 0 19.4674C0 30.219 8.97277 38.9348 20.0412 38.9348C24.9666 38.9348 29.4771 37.209 32.9664 34.3458L32.3743 37.6533L43.9577 48.905L50.3465 42.6991L38.7631 31.4474L35.3581 32.0226ZM20.0412 34.4424C28.5554 34.4424 35.4576 27.7378 35.4576 19.4674C35.4576 11.1971 28.5554 4.49248 20.0412 4.49248C11.5271 4.49248 4.6249 11.1971 4.6249 19.4674C4.6249 27.7378 11.5271 34.4424 20.0412 34.4424Z" fill="#EEDEF1"/>
  <path d="M46.1378 51.0228L52.5267 44.8168L54.6167 46.8471C55.7928 47.9896 55.7928 49.8418 54.6167 50.9843L52.4871 53.0529C51.311 54.1953 49.4041 54.1953 48.228 53.0529L46.1378 51.0228Z" fill="#EEDEF1"/>
</svg>