<svg xmlns="http://www.w3.org/2000/svg" width="173" height="168" viewBox="0 0 173 168" fill="none">
  <path d="M169.849 84.4118C169.849 129.126 132.56 165.492 86.4135 165.492C40.2674 165.492 2.97797 129.126 2.97797 84.4118C2.97797 39.6972 40.2674 3.33121 86.4135 3.33121C132.56 3.33121 169.849 39.6972 169.849 84.4118Z" fill="#D36AD6" stroke="black" stroke-width="5"/>
  <mask id="mask0_43_223" style="mask-type:alpha" maskUnits="userSpaceOnUse" x="20" y="52" width="60" height="65">
    <rect x="20.3475" y="52.3402" width="59.1669" height="64.1432" fill="#D9D9D9"/>
  </mask>
  <g mask="url(#mask0_43_223)">
    <path d="M54.5533 103.12C53.7179 103.12 53.105 102.716 52.7146 101.906C52.3243 101.097 52.3757 100.336 52.8687 99.6235L63.2435 84.4118L52.8687 69.2C52.3757 68.4873 52.3243 67.7264 52.7146 66.9172C53.105 66.108 53.7179 65.7033 54.5533 65.7033C54.9231 65.7033 55.2518 65.7961 55.5394 65.9818C55.8271 66.1673 56.0804 66.4086 56.2995 66.7056L67.4139 83.0977C67.5509 83.2908 67.6536 83.4987 67.7221 83.7214C67.7905 83.9441 67.8248 84.1742 67.8248 84.4118C67.8248 84.6493 67.7905 84.8683 67.7221 85.0688C67.6536 85.2692 67.5509 85.4882 67.4139 85.7258L56.2995 102.118C56.0804 102.415 55.8271 102.656 55.5394 102.842C55.2518 103.027 54.9231 103.12 54.5533 103.12ZM39.3096 103.12C38.4741 103.12 37.8612 102.716 37.4709 101.906C37.0806 101.097 37.1319 100.336 37.625 99.6235L47.9998 84.4118L37.625 69.2C37.1319 68.4873 37.0806 67.7264 37.4709 66.9172C37.8612 66.108 38.4741 65.7033 39.3096 65.7033C39.6794 65.7033 40.0081 65.7961 40.2957 65.9818C40.5833 66.1673 40.8367 66.4086 41.0558 66.7056L52.1702 83.0977C52.3071 83.2908 52.4099 83.4987 52.4783 83.7214C52.5468 83.9441 52.5811 84.1742 52.5811 84.4118C52.5811 84.6493 52.5468 84.8721 52.4783 85.0799C52.4099 85.2878 52.3071 85.5031 52.1702 85.7258L41.0558 102.118C40.8367 102.415 40.5833 102.656 40.2957 102.842C40.0081 103.027 39.6794 103.12 39.3096 103.12Z" fill="#1C1B1F"/>
  </g>
  <mask id="mask1_43_223" style="mask-type:alpha" maskUnits="userSpaceOnUse" x="35" y="52" width="60" height="65">
    <rect x="35.1392" y="52.3402" width="59.1669" height="64.1432" fill="#D9D9D9"/>
  </mask>
  <g mask="url(#mask1_43_223)">
    <path d="M69.3451 103.12C68.5096 103.12 67.8967 102.716 67.5064 101.906C67.1161 101.097 67.1674 100.336 67.6605 99.6235L78.0352 84.4118L67.6605 69.2C67.1674 68.4873 67.1161 67.7264 67.5064 66.9172C67.8967 66.108 68.5096 65.7033 69.3451 65.7033C69.7149 65.7033 70.0436 65.7961 70.3312 65.9818C70.6188 66.1673 70.8722 66.4086 71.0913 66.7056L82.2057 83.0977C82.3426 83.2908 82.4453 83.4987 82.5138 83.7214C82.5823 83.9441 82.6165 84.1742 82.6165 84.4118C82.6165 84.6493 82.5823 84.8683 82.5138 85.0688C82.4453 85.2692 82.3426 85.4882 82.2057 85.7258L71.0913 102.118C70.8722 102.415 70.6188 102.656 70.3312 102.842C70.0436 103.027 69.7149 103.12 69.3451 103.12ZM54.1013 103.12C53.2659 103.12 52.653 102.716 52.2626 101.906C51.8723 101.097 51.9237 100.336 52.4167 99.6235L62.7915 84.4118L52.4167 69.2C51.9237 68.4873 51.8723 67.7264 52.2626 66.9172C52.653 66.108 53.2659 65.7033 54.1013 65.7033C54.4711 65.7033 54.7998 65.7961 55.0874 65.9818C55.3751 66.1673 55.6284 66.4086 55.8475 66.7056L66.9619 83.0977C67.0989 83.2908 67.2016 83.4987 67.2701 83.7214C67.3386 83.9441 67.3728 84.1742 67.3728 84.4118C67.3728 84.6493 67.3386 84.8721 67.2701 85.0799C67.2016 85.2878 67.0989 85.5031 66.9619 85.7258L55.8475 102.118C55.6284 102.415 55.3751 102.656 55.0874 102.842C54.7998 103.027 54.4711 103.12 54.1013 103.12Z" fill="#1C1B1F"/>
  </g>
  <mask id="mask2_43_223" style="mask-type:alpha" maskUnits="userSpaceOnUse" x="64" y="52" width="60" height="65">
    <rect x="64.7227" y="52.3402" width="59.1669" height="64.1432" fill="#D9D9D9"/>
  </mask>
  <g mask="url(#mask2_43_223)">
    <path d="M98.9286 103.12C98.0931 103.12 97.4802 102.716 97.0899 101.906C96.6996 101.097 96.7509 100.336 97.244 99.6235L107.619 84.4118L97.244 69.2C96.7509 68.4873 96.6996 67.7264 97.0899 66.9172C97.4802 66.108 98.0931 65.7033 98.9286 65.7033C99.2984 65.7033 99.6271 65.7961 99.9147 65.9818C100.202 66.1673 100.456 66.4086 100.675 66.7056L111.789 83.0977C111.926 83.2908 112.029 83.4987 112.097 83.7214C112.166 83.9441 112.2 84.1742 112.2 84.4118C112.2 84.6493 112.166 84.8683 112.097 85.0688C112.029 85.2692 111.926 85.4882 111.789 85.7258L100.675 102.118C100.456 102.415 100.202 102.656 99.9147 102.842C99.6271 103.027 99.2984 103.12 98.9286 103.12ZM83.6848 103.12C82.8494 103.12 82.2365 102.716 81.8461 101.906C81.4558 101.097 81.5072 100.336 82.0002 99.6235L92.375 84.4118L82.0002 69.2C81.5072 68.4873 81.4558 67.7264 81.8461 66.9172C82.2365 66.108 82.8494 65.7033 83.6848 65.7033C84.0546 65.7033 84.3833 65.7961 84.6709 65.9818C84.9586 66.1673 85.2119 66.4086 85.431 66.7056L96.5454 83.0977C96.6824 83.2908 96.7851 83.4987 96.8536 83.7214C96.9221 83.9441 96.9563 84.1742 96.9563 84.4118C96.9563 84.6493 96.9221 84.8721 96.8536 85.0799C96.7851 85.2878 96.6824 85.5031 96.5454 85.7258L85.431 102.118C85.2119 102.415 84.9586 102.656 84.6709 102.842C84.3833 103.027 84.0546 103.12 83.6848 103.12Z" fill="#1C1B1F"/>
  </g>
  <mask id="mask3_43_223" style="mask-type:alpha" maskUnits="userSpaceOnUse" x="94" y="52" width="60" height="65">
    <rect x="94.3062" y="52.3402" width="59.1669" height="64.1432" fill="#D9D9D9"/>
  </mask>
  <g mask="url(#mask3_43_223)">
    <path d="M128.512 103.12C127.677 103.12 127.064 102.716 126.673 101.906C126.283 101.097 126.334 100.336 126.827 99.6235L137.202 84.4118L126.827 69.2C126.334 68.4873 126.283 67.7264 126.673 66.9172C127.064 66.108 127.677 65.7033 128.512 65.7033C128.882 65.7033 129.211 65.7961 129.498 65.9818C129.786 66.1673 130.039 66.4086 130.258 66.7056L141.373 83.0977C141.51 83.2908 141.612 83.4987 141.681 83.7214C141.749 83.9441 141.783 84.1742 141.783 84.4118C141.783 84.6493 141.749 84.8683 141.681 85.0688C141.612 85.2692 141.51 85.4882 141.373 85.7258L130.258 102.118C130.039 102.415 129.786 102.656 129.498 102.842C129.211 103.027 128.882 103.12 128.512 103.12ZM113.268 103.12C112.433 103.12 111.82 102.716 111.43 101.906C111.039 101.097 111.091 100.336 111.584 99.6235L121.958 84.4118L111.584 69.2C111.091 68.4873 111.039 67.7264 111.43 66.9172C111.82 66.108 112.433 65.7033 113.268 65.7033C113.638 65.7033 113.967 65.7961 114.254 65.9818C114.542 66.1673 114.795 66.4086 115.015 66.7056L126.129 83.0977C126.266 83.2908 126.369 83.4987 126.437 83.7214C126.506 83.9441 126.54 84.1742 126.54 84.4118C126.54 84.6493 126.506 84.8721 126.437 85.0799C126.369 85.2878 126.266 85.5031 126.129 85.7258L115.015 102.118C114.795 102.415 114.542 102.656 114.254 102.842C113.967 103.027 113.638 103.12 113.268 103.12Z" fill="#1C1B1F"/>
  </g>
</svg>