<svg xmlns="http://www.w3.org/2000/svg" width="96" height="95" viewBox="0 0 96 95" fill="none">
  <mask id="mask0_43_177" style="mask-type:alpha" maskUnits="userSpaceOnUse" x="0" y="0" width="96" height="95">
    <rect x="0.51062" y="0.762146" width="95.3736" height="93.2992" fill="#D9D9D9"/>
  </mask>
  <g mask="url(#mask0_43_177)">
    <path d="M47.7044 79.8074C48.0135 79.8074 48.3557 79.7318 48.731 79.5805C49.1063 79.4294 49.4044 79.2458 49.6251 79.0299L82.8073 46.5047C83.6462 45.684 84.2698 44.7517 84.6783 43.7079C85.0867 42.664 85.291 41.6202 85.291 40.5763C85.291 39.4964 85.0867 38.4328 84.6783 37.3853C84.2698 36.3379 83.6462 35.4146 82.8073 34.6155L65.2559 17.4458C64.439 16.6251 63.4952 16.015 62.4245 15.6155C61.3537 15.2159 60.2664 15.0161 59.1625 15.0161C58.0954 15.0161 57.0284 15.2159 55.9613 15.6155C54.8943 16.015 53.9412 16.6251 53.1023 17.4458L51.5458 18.9684L59.3612 26.711C60.2664 27.6181 61.017 28.6655 61.6131 29.8533C62.2092 31.0412 62.5072 32.3262 62.5072 33.7084C62.5072 36.2569 61.5413 38.4652 59.6095 40.3334C57.6778 42.2015 55.4094 43.1355 52.8042 43.1355C51.2589 43.1355 49.9177 42.898 48.7807 42.4229C47.6437 41.9477 46.6186 41.26 45.7052 40.3598L38.3658 33.2225L20.5826 50.6189C20.2956 50.8997 20.0914 51.1972 19.9699 51.5115C19.8485 51.8258 19.7878 52.1625 19.7878 52.5217C19.7878 53.2401 20.0417 53.8531 20.5495 54.3606C21.0572 54.8682 21.679 55.122 22.4149 55.122C22.7829 55.122 23.1325 55.0356 23.4637 54.8628C23.7948 54.69 24.0708 54.4956 24.2915 54.2796L37.9353 40.9327L42.5715 45.468L29.0271 58.7502C28.7401 59.031 28.5359 59.3387 28.4144 59.6735C28.293 60.0082 28.2323 60.3484 28.2323 60.694C28.2323 61.3851 28.4973 61.9898 29.0271 62.5082C29.557 63.0265 30.1751 63.2856 30.8816 63.2856C31.2348 63.2856 31.577 63.21 31.9082 63.0588C32.2393 62.9077 32.5153 62.7241 32.7361 62.5082L46.3798 49.1936L51.016 53.7289L37.4716 67.0111C37.2288 67.2271 37.0356 67.515 36.8922 67.875C36.7486 68.2349 36.6769 68.5949 36.6769 68.9548C36.6769 69.646 36.9418 70.2507 37.4716 70.769C38.0015 71.2873 38.6197 71.5465 39.3262 71.5465C39.6794 71.5465 40.005 71.4871 40.3031 71.3683C40.6011 71.2495 40.8936 71.0498 41.1806 70.769L54.8244 57.4544L59.4605 61.9898L45.8168 75.3367C45.5299 75.6175 45.3256 75.9253 45.2042 76.26C45.0828 76.5947 45.0221 76.9133 45.0221 77.2157C45.0221 77.9932 45.2704 78.6195 45.7672 79.0946C46.2639 79.5698 46.9097 79.8074 47.7044 79.8074ZM47.6755 86.2864C45.3988 86.2864 43.3718 85.4927 41.5946 83.9054C39.8174 82.318 38.7632 80.3447 38.432 77.9854C36.1802 77.6667 34.2926 76.7622 32.7692 75.272C31.2459 73.7818 30.3187 71.9352 29.9875 69.7323C27.7356 69.4084 25.8646 68.4851 24.3744 66.9625C22.8842 65.4399 21.9735 63.6096 21.6423 61.4715C19.1697 61.1475 17.1386 60.1432 15.549 58.4587C13.9595 56.7741 13.1647 54.7656 13.1647 52.4331C13.1647 51.2669 13.3959 50.1157 13.8583 48.9798C14.3208 47.8438 14.9837 46.8461 15.847 45.9864L38.3658 23.9898L49.9894 35.3606C50.3868 35.7709 50.8357 36.0895 51.3361 36.3163C51.8365 36.5431 52.337 36.6565 52.8374 36.6565C53.6101 36.6565 54.3165 36.3487 54.9568 35.7331C55.5971 35.1176 55.9172 34.4286 55.9172 33.6661C55.9172 33.3271 55.8234 32.9525 55.6357 32.5422C55.448 32.1318 55.1445 31.7322 54.725 31.3435L40.5183 17.4458C39.7014 16.6251 38.7576 16.015 37.6869 15.6155C36.6162 15.2159 35.5288 15.0161 34.425 15.0161C33.3579 15.0161 32.2908 15.2159 31.2238 15.6155C30.1567 16.015 29.205 16.6221 28.3686 17.4366L13.6283 31.8942C12.8114 32.6934 12.2153 33.5573 11.84 34.4859C11.4647 35.4146 11.2329 36.4297 11.1446 37.5312C11.0562 38.6326 11.2218 39.7179 11.6413 40.7869C12.0607 41.856 12.6016 42.8333 13.2639 43.7188L8.49527 48.3836C7.23687 46.9366 6.24339 45.2467 5.51484 43.3138C4.78629 41.3808 4.44411 39.4209 4.48829 37.434C4.53246 35.5334 4.94088 33.703 5.71354 31.9428C6.48626 30.1827 7.56806 28.6224 8.95892 27.2617L23.6293 12.9105C25.1305 11.4635 26.8203 10.3837 28.6989 9.67095C30.5773 8.95825 32.5035 8.6019 34.4775 8.6019C36.4515 8.6019 38.3713 8.95825 40.2368 9.67095C42.1023 10.3837 43.7747 11.4635 45.2538 12.9105L46.8103 14.4331L48.3668 12.9105C49.868 11.4635 51.5579 10.3837 53.4364 9.67095C55.3149 8.95825 57.2411 8.6019 59.215 8.6019C61.1891 8.6019 63.1088 8.95825 64.9743 9.67095C66.8399 10.3837 68.5122 11.4635 69.9914 12.9105L87.4434 29.983C88.9226 31.43 90.0375 33.0828 90.7882 34.9416C91.5388 36.8004 91.9141 38.6901 91.9141 40.6108C91.9141 42.5316 91.5388 44.4044 90.7882 46.2293C90.0375 48.0543 88.9226 49.6902 87.4434 51.1372L54.2614 83.5652C53.3783 84.4291 52.3676 85.0986 51.2292 85.5738C50.0908 86.0489 48.9062 86.2864 47.6755 86.2864Z" fill="#1C1B1F"/>
  </g>
</svg>