<svg xmlns="http://www.w3.org/2000/svg" width="70" height="70" viewBox="0 0 90 90" fill="none">
  <path d="M63.2719 31.1766C62.8814 30.1652 62.2834 29.2469 61.5164 28.4807C60.7495 27.7146 59.8305 27.1175 58.8188 26.7281C57.4257 26.2121 55.9542 25.9394 54.4688 25.9219C51.9984 25.8094 51.2578 25.7812 45 25.7812C38.7422 25.7812 38.0016 25.8094 35.5313 25.9219C34.0442 25.9389 32.5712 26.2116 31.1766 26.7281C30.1652 27.1186 29.2469 27.7166 28.4807 28.4836C27.7146 29.2505 27.1176 30.1695 26.7281 31.1812C26.2122 32.5743 25.9394 34.0458 25.9219 35.5312C25.8094 38.0016 25.7813 38.7422 25.7813 45C25.7813 51.2578 25.8094 51.9984 25.9219 54.4687C25.9389 55.9558 26.2116 57.4288 26.7281 58.8234C27.1186 59.8348 27.7166 60.7531 28.4836 61.5193C29.2506 62.2854 30.1695 62.8824 31.1813 63.2719C32.5744 63.7878 34.0458 64.0606 35.5313 64.0781C38.0016 64.1906 38.7422 64.2141 45 64.2141C51.2578 64.2141 51.9984 64.1906 54.4688 64.0734C55.9555 64.0579 57.4286 63.7868 58.8234 63.2719C59.8348 62.8814 60.7531 62.2834 61.5193 61.5164C62.2854 60.7494 62.8825 59.8305 63.2719 58.8187C63.7879 57.4256 64.0606 55.9542 64.0781 54.4687C64.1906 51.9984 64.2141 51.2578 64.2141 45C64.2141 38.7422 64.1906 38.0016 64.0734 35.5312C64.0579 34.0445 63.7868 32.5714 63.2719 31.1766ZM45 57.0375C42.6192 57.0375 40.2919 56.3315 38.3123 55.0088C36.3328 53.6861 34.7899 51.8061 33.8788 49.6065C32.9677 47.407 32.7293 44.9866 33.1938 42.6516C33.6583 40.3165 34.8047 38.1717 36.4882 36.4882C38.1717 34.8047 40.3166 33.6583 42.6516 33.1938C44.9867 32.7293 47.407 32.9677 49.6066 33.8788C51.8061 34.7899 53.6861 36.3328 55.0088 38.3123C56.3315 40.2919 57.0375 42.6192 57.0375 45C57.0375 48.1925 55.7693 51.2543 53.5118 53.5118C51.2543 55.7693 48.1926 57.0375 45 57.0375ZM57.5109 35.3016C56.9547 35.3016 56.4109 35.1366 55.9484 34.8276C55.4859 34.5185 55.1254 34.0793 54.9125 33.5654C54.6997 33.0514 54.644 32.4859 54.7525 31.9404C54.861 31.3948 55.1289 30.8937 55.5222 30.5003C55.9155 30.107 56.4167 29.8391 56.9623 29.7306C57.5078 29.6221 58.0733 29.6778 58.5872 29.8906C59.1012 30.1035 59.5404 30.464 59.8495 30.9265C60.1585 31.389 60.3234 31.9328 60.3234 32.4891C60.3234 33.235 60.0271 33.9503 59.4997 34.4778C58.9722 35.0052 58.2569 35.3016 57.5109 35.3016ZM52.8141 45C52.8141 46.5455 52.3558 48.0562 51.4972 49.3412C50.6385 50.6263 49.4182 51.6278 47.9903 52.2192C46.5625 52.8107 44.9913 52.9654 43.4756 52.6639C41.9598 52.3624 40.5675 51.6182 39.4746 50.5254C38.3818 49.4325 37.6376 48.0402 37.3361 46.5244C37.0346 45.0087 37.1893 43.4375 37.7808 42.0097C38.3722 40.5818 39.3737 39.3615 40.6588 38.5028C41.9438 37.6442 43.4545 37.1859 45 37.1859C47.0724 37.1859 49.06 38.0092 50.5254 39.4746C51.9908 40.94 52.8141 42.9276 52.8141 45ZM45 0C36.0999 0 27.3996 2.6392 19.9994 7.58387C12.5991 12.5285 6.83138 19.5566 3.42544 27.7792C0.0194977 36.0019 -0.871652 45.0499 0.864683 53.7791C2.60102 62.5082 6.88685 70.5264 13.1802 76.8198C19.4736 83.1132 27.4918 87.399 36.2209 89.1353C44.9501 90.8717 53.9981 89.9805 62.2208 86.5746C70.4434 83.1686 77.4715 77.4009 82.4161 70.0006C87.3608 62.6004 90 53.9001 90 45C90 33.0653 85.2589 21.6193 76.8198 13.1802C68.3807 4.74106 56.9348 0 45 0ZM68.2969 54.6609C68.2572 56.6059 67.8879 58.5301 67.2047 60.3516C66.6027 61.9082 65.6821 63.3218 64.502 64.502C63.3219 65.6821 61.9082 66.6027 60.3516 67.2047C58.5316 67.8874 56.609 68.2566 54.6656 68.2969C52.1625 68.4094 51.3656 68.4375 45 68.4375C38.6344 68.4375 37.8375 68.4094 35.3344 68.2969C33.391 68.2566 31.4684 67.8874 29.6485 67.2047C28.0918 66.6027 26.6782 65.6821 25.498 64.502C24.3179 63.3218 23.3973 61.9082 22.7953 60.3516C22.1126 58.5316 21.7434 56.609 21.7031 54.6656C21.5906 52.1625 21.5625 51.3656 21.5625 45C21.5625 38.6344 21.5906 37.8375 21.7031 35.3344C21.7419 33.3912 22.1096 31.4687 22.7906 29.6484C23.3926 28.0905 24.3136 26.6756 25.4946 25.4946C26.6756 24.3136 28.0905 23.3926 29.6485 22.7906C31.4687 22.1095 33.3913 21.7418 35.3344 21.7031C37.8375 21.5906 38.6344 21.5625 45 21.5625C51.3656 21.5625 52.1625 21.5906 54.6656 21.7031C56.6088 21.7418 58.5313 22.1095 60.3516 22.7906C61.9086 23.3931 63.3226 24.3144 64.5028 25.4954C65.6829 26.6764 66.6033 28.0909 67.2047 29.6484C67.8874 31.4684 68.2567 33.391 68.2969 35.3344C68.4094 37.8375 68.4375 38.6344 68.4375 45C68.4375 51.3656 68.4094 52.1578 68.2969 54.6609Z" fill="black"/>
</svg>