<svg xmlns="http://www.w3.org/2000/svg" width="70" height="70" viewBox="0 0 90 90" fill="none">
  <path d="M3.5625 62.4844C1.1875 56.9219 0 51.0938 0 45C0 38.9062 1.1875 33.0781 3.5625 27.5156C5.9375 21.9531 9.13281 17.1641 13.1484 13.1484C17.1641 9.13281 21.9531 5.9375 27.5156 3.5625C33.0781 1.1875 38.9062 0 45 0C51.0938 0 56.9219 1.1875 62.4844 3.5625C68.0469 5.9375 72.8359 9.13281 76.8516 13.1484C80.8672 17.1641 84.0625 21.9531 86.4375 27.5156C88.8125 33.0781 90 38.9062 90 45C90 51.0938 88.8125 56.9219 86.4375 62.4844C84.0625 68.0469 80.8672 72.8359 76.8516 76.8516C72.8359 80.8672 68.0469 84.0625 62.4844 86.4375C56.9219 88.8125 51.0938 90 45 90C38.9062 90 33.0781 88.8125 27.5156 86.4375C21.9531 84.0625 17.1641 80.8672 13.1484 76.8516C9.13281 72.8359 5.9375 68.0469 3.5625 62.4844ZM21.7969 59.4844C21.7969 61.8906 22.6484 63.9375 24.3516 65.625C26.0547 67.3125 28.1094 68.1562 30.5156 68.1562H59.5312C61.9375 68.1562 63.9922 67.3125 65.6953 65.625C67.3984 63.9375 68.25 61.8906 68.25 59.4844V30.4688C68.25 28.0625 67.3984 26.0156 65.6953 24.3281C63.9922 22.6406 61.9375 21.7969 59.5312 21.7969H30.5156C28.1094 21.7969 26.0547 22.6406 24.3516 24.3281C22.6484 26.0156 21.7969 28.0625 21.7969 30.4688V59.4844ZM29.5781 59.4844V40.1719C29.5781 39.9219 29.6719 39.6953 29.8594 39.4922C30.0469 39.2891 30.2656 39.1875 30.5156 39.1875H36.3281C36.5781 39.1875 36.7969 39.2891 36.9844 39.4922C37.1719 39.6953 37.2656 39.9219 37.2656 40.1719V59.4844C37.2656 59.7344 37.1719 59.9609 36.9844 60.1641C36.7969 60.3672 36.5781 60.4688 36.3281 60.4688H30.5156C30.2656 60.4688 30.0469 60.3672 29.8594 60.1641C29.6719 59.9609 29.5781 59.7344 29.5781 59.4844ZM29.5781 33.2344C29.5781 32.2344 29.9453 31.3594 30.6797 30.6094C31.4141 29.8594 32.2812 29.4844 33.2812 29.4844C34.3125 29.4844 35.1953 29.8516 35.9297 30.5859C36.6641 31.3203 37.0312 32.2031 37.0312 33.2344C37.0312 34.2656 36.6719 35.1406 35.9531 35.8594C35.2031 36.6094 34.3125 36.9844 33.2812 36.9844C32.2812 36.9844 31.4141 36.625 30.6797 35.9062C29.9453 35.1875 29.5781 34.2969 29.5781 33.2344ZM39.2344 59.4844V40.0312C39.2344 39.7812 39.3828 39.5781 39.6797 39.4219C39.9766 39.2656 40.2656 39.1875 40.5469 39.1875H45.8906C46.6094 39.1875 46.9688 39.5469 46.9688 40.2656C46.9688 40.1719 47.0937 40.0469 47.3438 39.8906C48.7812 38.9844 50.3906 38.5312 52.1719 38.5312C54.7969 38.5312 56.8359 39.1953 58.2891 40.5234C59.7422 41.8516 60.4688 43.7969 60.4688 46.3594V59.4844C60.4688 59.7344 60.375 59.9609 60.1875 60.1641C60 60.3672 59.7813 60.4688 59.5312 60.4688H53.9062C53.625 60.4688 53.3672 60.3672 53.1328 60.1641C52.8984 59.9609 52.7812 59.7344 52.7812 59.4844V47.625C52.7812 46.5625 52.6172 45.8125 52.2891 45.375C51.9609 44.9375 51.3281 44.7188 50.3906 44.7188C48.1094 44.7188 46.9688 46.125 46.9688 48.9375V59.4844C46.9688 59.7344 46.875 59.9609 46.6875 60.1641C46.5 60.3672 46.2969 60.4688 46.0781 60.4688H40.5469C40.2656 60.4688 39.9766 60.3672 39.6797 60.1641C39.3828 59.9609 39.2344 59.7344 39.2344 59.4844Z" fill="black"/>
</svg>